<svg xmlns="http://www.w3.org/2000/svg" viewBox="0 0 237.8 34.6"><defs><style>.cls-1{fill:#7b7c7e;}.cls-2{fill:#00b6e8;}</style></defs><title>Asset 1</title><g id="Layer_2" data-name="Layer 2"><g id="Layer_1-2" data-name="Layer 1"><g id="Ebene_1" data-name="Ebene 1"><path class="cls-1" d="M.1,34.1h4V18.7c0-3.6.6-6,1.7-7.2s3.4-1.8,6.8-1.8c4.2,0,6.3,2.1,6.3,6.2V34.2h4V15.5c0-6.1-3.4-9.2-10.3-9.2C8,6.3,5.1,7.6,4.1,10.1L4,10V0H0V34.1Z"/><path class="cls-1" d="M50.3,25.8v.9c0,1.9-.5,3.1-1.4,3.6s-3.1.8-6.3.8c-3.4,0-5.6-.6-6.5-1.8s-1.4-3.9-1.4-8.2H54.4V19c0-5.2-.8-8.6-2.3-10.2s-4.9-2.4-9.9-2.4c-4.6,0-7.7.9-9.3,2.8s-2.4,5.5-2.4,11c0,5.9.8,9.8,2.4,11.6s4.9,2.8,9.9,2.8c4.3,0,7.4-.6,9.1-1.7s2.6-3.1,2.6-6v-1H50.3ZM36.2,11.2c1-1,3.1-1.6,6.3-1.6s5.3.4,6.3,1.3,1.5,2.8,1.5,5.8V18H34.7C34.7,14.5,35.2,12.2,36.2,11.2Z"/><path class="cls-1" d="M92.2,6.3c-4.6,0-7.7,1.5-9.4,4.6h-.1c-1-3.1-3.8-4.6-8.4-4.6-4.4,0-7.4,1.5-8.9,4.6l-.2-.1.1-4.1h-4V34.1h4V18.5c0-5.9,2.7-8.9,8.2-8.9,4,0,6,1.8,6,5.3l.1,1.3V34.1h4V18.2c0-3.4.6-5.6,1.7-6.8s3.3-1.8,6.4-1.8c2.4,0,4,.4,4.9,1.3s1.3,2.5,1.3,4.9V34.1h4V16.2C101.9,9.6,98.6,6.3,92.2,6.3Z"/><path class="cls-1" d="M121.7,6.3c-5,0-8.3.9-9.8,2.6s-2.3,5.6-2.3,11.4.8,9.7,2.3,11.4,4.8,2.6,9.8,2.6,8.3-.9,9.8-2.6,2.3-5.6,2.3-11.4-.8-9.7-2.3-11.4S126.8,6.3,121.7,6.3Zm6.6,23.1c-.8,1.2-3.1,1.7-6.6,1.7s-5.7-.6-6.6-1.7-1.3-4.2-1.3-9,.4-7.9,1.3-9,3-1.7,6.6-1.7,5.8.6,6.6,1.7,1.3,4.2,1.3,9S129.2,28.3,128.3,29.4Z"/><polygon class="cls-2" points="153 21.6 151.5 26.3 150.9 28.6 150.2 30.9 150.1 30.9 149.3 28.6 148.6 26.3 147.1 21.6 142.2 6.7 138.1 6.7 147.2 34.1 152.9 34.1 162.1 6.7 157.6 6.7 153 21.6"/><path class="cls-2" d="M186.2,25.8v.9c0,1.9-.5,3.1-1.4,3.6s-3.1.8-6.3.8c-3.4,0-5.6-.6-6.5-1.8s-1.4-3.9-1.4-8.2h19.6V19c0-5.2-.8-8.6-2.3-10.2S183,6.4,178,6.4c-4.6,0-7.7.9-9.3,2.8s-2.4,5.5-2.4,11c0,5.9.8,9.8,2.4,11.6s4.9,2.8,9.9,2.8c4.3,0,7.4-.6,9.1-1.7s2.6-3.1,2.6-6v-1h-4.1ZM172.1,11.2c1-1,3.1-1.6,6.3-1.6s5.3.4,6.3,1.3,1.5,2.8,1.5,5.8V18H170.7C170.6,14.5,171.1,12.2,172.1,11.2Z"/><path class="cls-2" d="M210.7,6.3c-4.8,0-7.9,1.4-9.1,4.2l-.1-.1.1-3.7h-3.9V34.1h4V17.6c0-5.3,2.8-8,8.4-8,2.6,0,4.3.4,5.2,1.2s1.3,2.4,1.3,4.7V34h4V16.3c0-3.9-.7-6.5-2.1-7.9C217.3,7,214.6,6.3,210.7,6.3Z"/><path class="cls-2" d="M234,26.8V10h3.8V6.7H234V.1h-4V6.7h-3.8V10H230V27.7c0,4.4,2.6,6.7,7.8,6.7V31.1C235.3,31.1,234,29.6,234,26.8Z"/></g></g></g></svg>
